<?xml version="1.0" encoding="utf-8"?>
<!-- Generator: Adobe Illustrator 21.0.0, SVG Export Plug-In . SVG Version: 6.00 Build 0)  -->
<svg version="1.1" id="logo" xmlns="http://www.w3.org/2000/svg" xmlns:xlink="http://www.w3.org/1999/xlink" x="0px" y="0px"
	 viewBox="0 0 255.8 269.3" style="enable-background:new 0 0 255.8 269.3;" xml:space="preserve">
<style type="text/css">
	.st0{fill:#FFE07B;}
	.st1{fill:#FCAB00;}
	.st2{fill:#BF2B00;}
	.st3{fill:#6B8500;}
	.st4{fill:#8F8500;}
	.st5{fill:#87A836;}
</style>
<g>
	<path class="st0" d="M247.1,44.7l-0.4,0.7l-31.6,59.5l-9.1,17.1l-15.6,29.5v0l-12.3,23.1l-50.2,94.7l-50.3-94.8l-18-33.9l-6.7-12.7
		l-11-20.6L9.1,45.4l-0.4-0.7c36.9-17.8,77.9-27.2,119.2-27.2S210.1,26.9,247.1,44.7z"/>
	<path class="st1" d="M255.8,26.7c-13.1-6.3-28.2-8-42.2-12.2C199.6,10.1,186.3,3,171.8,0.8c-14.4-2.2-29.3,0.7-43.9,0.7
		c-14.6,0-29.5-2.9-43.9-0.7C69.5,3,56.1,10.1,42.2,14.4c-14,4.3-29.1,5.9-42.2,12.3C0,41,8.7,45.6,8.7,45.6
		c7.6-3.6,16.1-5.6,24.4-7.4c5-1.1,10.1-2.3,15-3.8c4.9-1.5,9.8-3.5,14.6-5.3c7.9-3.1,16-6.3,24.3-7.6c8.3-1.2,17-0.6,25.4,0.1
		c5.1,0.4,10.3,0.8,15.5,0.8c5.2,0,10.4-0.4,15.5-0.8c8.4-0.7,17.1-1.4,25.4-0.1c8.3,1.3,16.4,4.5,24.3,7.6
		c4.7,1.9,9.6,3.8,14.6,5.3c4.9,1.5,10.1,2.7,15,3.8c8.3,1.8,16.8,3.8,24.4,7.4C247.1,45.6,254.7,40.2,255.8,26.7z"/>
	<path class="st2" d="M126.1,194.5c-0.4-2.7-1.7-5.2-3.6-7.1c-1.9-1.9-4.4-3.2-7.1-3.7c-2.7-0.5-5.5-0.3-8,0.7
		c-1.3,0.5-2.4,1.2-3.5,2c-1.1,0.8-2.1,1.7-3,2.7c-1.8,2-3.1,4.5-3.3,7.2c-0.3,2.7,0.5,5.4,1.9,7.7c1.4,2.3,3.5,4.1,5.8,5.5l0.1-0.1
		l0,0c0,0,0,0,0,0l0,0c0,0,0,0,0,0c0,0,0,0,0,0l0,0c0,0,0,0,0,0c0.2-1.7,0.9-3.4,2.2-4.6c0.6-0.6,1.4-1.1,2.3-1.3
		c0.7-0.1,1.3-0.1,2,0.1c0.2,0.1,0.4,0.1,0.6,0.2h0c0,0,0,0,0,0c0.1,0.2,0.2,0.4,0.2,0.6c0.1,0.2,0.2,0.4,0.3,0.7
		c0.1,0.2,0.1,0.4,0.2,0.6c0.5,1.5,0.7,3,0.9,4.6c0.1,1.1,0.1,2.2,0.1,3.3c0,0.3,0,0.7,0.1,1c0.1,1.2,0.3,1.8,0.7,2c0,0,0,0,0,0
		c0,0,0.1,0,0.1,0c0,0,0,0,0.1,0l0,0c0,0,0,0,0,0l0,0.1c0.5,0.1,0.9-0.2,1.2-0.5c0.3-0.3,0.6-0.6,0.8-0.9c0.5-0.7,1-1.3,1.5-1.9
		c0.3-0.3,0.5-0.6,0.9-0.8c0.3-0.2,0.7-0.3,1.1-0.3c0.4,0,0.8-0.1,1.2-0.1c0.4-0.1,0.9-0.1,1.1-0.6l-0.1,0l0,0
		c0.1-0.3,0-0.5-0.1-0.8c-0.1-0.2-0.3-0.4-0.4-0.6c-0.3-0.4-0.6-0.8-1-1.2c-0.7-0.8-1.3-1.5-1.9-2.3c-1.2-1.6-2.4-3.2-3.1-5.1
		c0.4-0.9,1-1.5,1.8-2c0.8-0.4,1.7-0.7,2.7-0.6c0.9,0,1.8,0.4,2.4,1c0,0,0,0,0.1,0.1c0.1,0.1,0.2,0.2,0.3,0.4
		c0.1,0.1,0.1,0.2,0.2,0.3c0.1,0.1,0.1,0.2,0.2,0.3c0.1,0.1,0.1,0.3,0.2,0.5c0,0.1,0.1,0.1,0.1,0.2c0.1,0.2,0.1,0.4,0.1,0.6
		c0,0,0,0.1,0,0.1l0.1,0c0,0,0,0,0,0.1c0,0,0,0,0,0c0,0,0,0,0,0c0,0,0,0,0,0l0,0l0.1,0.1C125.9,199.9,126.5,197.2,126.1,194.5z
		 M107.5,199.4c-0.8,0.2-1.8,0.6-2.5,1.3c-0.7,0.7-1.1,1.6-1.3,2.4c-0.2,0.8-0.2,1.6-0.1,2.4c0.2,1.2,0.5,2.3,1.1,3.2
		c-0.2-0.2-0.5-0.5-0.7-0.7c-0.7-1.4-1.2-2.9-1.5-4.5c-0.2-0.9-0.2-1.9-0.1-2.9c0.1-0.9,0.4-1.9,1-2.6c0.6-0.8,1.5-1.2,2.4-1.2
		c0.9,0,1.8,0.5,2.6,1.1c0.4,0.3,0.7,0.6,1,0.9c0.1,0.1,0.1,0.1,0.2,0.2c0.1,0.1,0.2,0.2,0.2,0.3c0.1,0.1,0.2,0.3,0.3,0.4
		C109.4,199.3,108.4,199.3,107.5,199.4z M122.9,211.3C122.9,211.3,123,211.3,122.9,211.3L122.9,211.3
		C122.9,211.3,122.9,211.3,122.9,211.3z M116,199.8C115.9,199.8,115.9,199.7,116,199.8C115.9,199.7,115.9,199.7,116,199.8
		C116,199.8,116,199.8,116,199.8z M116.4,201.5C116.4,201.5,116.4,201.5,116.4,201.5L116.4,201.5c0-0.1,0-0.1,0-0.1
		C116.4,201.4,116.4,201.4,116.4,201.5l0-0.1L116.4,201.5C116.4,201.5,116.4,201.5,116.4,201.5z M120.7,193.8c-1,0-1.9,0.3-2.7,0.7
		c-0.8,0.4-1.6,1-2.1,1.9c-0.3,0.4-0.4,0.9-0.5,1.3c-0.2-0.9-0.3-1.8-0.2-2.7c0.1-0.8,0.3-1.6,0.8-2.2c0.4-0.7,1.1-1.2,1.9-1.4
		c0.8-0.2,1.6,0,2.3,0.3c0.7,0.4,1.3,1,1.8,1.6c0.2,0.3,0.4,0.5,0.5,0.8C121.8,194,121.2,193.8,120.7,193.8z"/>
	<path class="st2" d="M185.5,37.5c-0.6-1.1-1.4-2.1-2.3-2.9c-0.9-0.9-1.8-1.7-2.8-2.4c-2-1.4-4.5-2.2-7-2.1
		c-2.5,0.1-4.9,1.1-6.8,2.7c-1.9,1.6-3.3,3.7-4.3,5.9l0.1,0.1v0c0,0,0,0,0,0l0,0c0,0,0,0,0,0c0,0,0,0,0,0l0,0c0,0,0,0,0,0
		c1.6,0,3.2,0.4,4.5,1.4c0.6,0.5,1.2,1.2,1.4,1.9c0.2,0.6,0.2,1.2,0.2,1.8c0,0.2-0.1,0.4-0.1,0.6v0c0,0,0,0,0,0
		c-0.2,0.1-0.3,0.2-0.5,0.3c-0.2,0.1-0.4,0.2-0.6,0.3c-0.2,0.1-0.3,0.2-0.5,0.2c-1.3,0.6-2.6,1-4,1.4c-1,0.2-2,0.4-3,0.5
		c-0.3,0.1-0.6,0.1-0.9,0.2c-1,0.2-1.6,0.5-1.7,0.9c0,0,0,0,0,0c0,0,0,0.1,0,0.1c0,0,0,0,0,0.1l0,0c0,0,0,0,0,0l-0.1,0
		c0,0.5,0.3,0.8,0.6,1c0.3,0.3,0.6,0.5,1,0.7c0.7,0.4,1.3,0.7,1.9,1.1c0.3,0.2,0.6,0.4,0.8,0.7c0.2,0.3,0.3,0.6,0.4,1
		c0.1,0.4,0.2,0.7,0.3,1.1c0.1,0.3,0.2,0.8,0.7,1l0-0.1l0,0c0.3,0.1,0.5-0.1,0.7-0.2c0.2-0.1,0.4-0.3,0.5-0.5c0.3-0.3,0.6-0.7,0.9-1
		c0.6-0.7,1.2-1.4,1.9-2c1.3-1.3,2.6-2.6,4.2-3.5c0.8,0.2,1.5,0.8,2,1.4c0.5,0.7,0.8,1.5,0.9,2.3c0.1,0.8-0.1,1.7-0.6,2.3
		c0,0,0,0-0.1,0.1c-0.1,0.1-0.2,0.2-0.3,0.3c-0.1,0.1-0.1,0.1-0.2,0.2c-0.1,0.1-0.2,0.1-0.2,0.2c-0.1,0.1-0.3,0.2-0.4,0.2
		c-0.1,0-0.1,0.1-0.2,0.1c-0.2,0.1-0.3,0.1-0.5,0.2c0,0-0.1,0-0.1,0l0,0.1c0,0,0,0-0.1,0c0,0,0,0,0,0c0,0,0,0,0,0c0,0,0,0,0,0l0,0
		l0,0.1c2.3,0.7,4.9,0.8,7.3,0.1c2.4-0.7,4.5-2.2,6-4.2c1.5-2,2.4-4.4,2.5-6.9C187.3,42.1,186.7,39.6,185.5,37.5z M163,54.9
		L163,54.9C163,54.9,163.1,54.9,163,54.9C163.1,54.9,163,54.9,163,54.9z M171.2,47.7C171.2,47.7,171.2,47.7,171.2,47.7
		C171.2,47.7,171.2,47.7,171.2,47.7L171.2,47.7C171.2,47.7,171.2,47.7,171.2,47.7C171.2,47.7,171.2,47.7,171.2,47.7L171.2,47.7
		L171.2,47.7z M172.7,47.1C172.7,47.1,172.7,47.1,172.7,47.1C172.7,47.1,172.7,47.1,172.7,47.1C172.7,47.1,172.7,47.1,172.7,47.1z
		 M173.5,40.1c-0.2,0.4-0.5,0.7-0.7,1c-0.1,0.1-0.1,0.1-0.2,0.2c-0.1,0.1-0.1,0.2-0.2,0.3c-0.1,0.1-0.2,0.2-0.4,0.4
		c0.3-0.8,0.2-1.7,0-2.5c-0.2-0.7-0.8-1.5-1.5-2.1c-0.7-0.5-1.6-0.8-2.3-0.9c-0.8,0-1.5,0-2.2,0.2c-1,0.3-2,0.7-2.8,1.4
		c0.2-0.2,0.4-0.5,0.6-0.7c1.2-0.8,2.5-1.5,3.9-1.9c0.8-0.3,1.7-0.4,2.6-0.5c0.9,0,1.8,0.1,2.5,0.5c0.8,0.4,1.3,1.2,1.4,2.1
		C174.2,38.4,173.9,39.3,173.5,40.1z M180.5,49.8c-0.3,0.7-0.7,1.3-1.2,1.8c-0.2,0.2-0.4,0.4-0.7,0.6c0.1-0.5,0.2-1,0.1-1.5
		c-0.2-0.9-0.5-1.7-1-2.4c-0.5-0.7-1.1-1.3-2-1.7c-0.4-0.2-0.8-0.3-1.3-0.3c0.8-0.3,1.6-0.5,2.4-0.5c0.7,0,1.5,0.1,2.1,0.4
		c0.7,0.3,1.2,0.8,1.5,1.5C180.8,48.3,180.7,49.1,180.5,49.8z"/>
	<path class="st3" d="M176.9,81.2c-0.5-2.1-1.8-4-3.6-5.2c1.2-1.9,1.6-4.2,1.1-6.4c-0.5-2.5-2.2-4.7-4.4-5.8
		c-2.2-1.1-4.9-1.2-7.1-0.2c-2.2,1-3.9,3-4.4,5.2c-1.5-1.6-3.8-2.5-6.1-2.4c-2.3,0.1-4.6,1.3-6.1,3.2c-0.8,0.9-1.3,2.1-1.5,3.3
		c-0.1,0.6-0.2,1.2-0.2,1.8c0,0.5,0.1,1.2,0.2,1.8c0.4,2.1,1.7,4,3.5,5.3c-0.8,1.9-1,4-0.4,6C148.4,90,150,92,152,93
		c2,1,4.5,1.2,6.6,0.4c2.1-0.8,3.7-2.4,4.5-4.3c1.5,1.7,3.9,2.6,6.2,2.5c2.4-0.1,4.7-1.4,6.2-3.3C177,86.3,177.5,83.6,176.9,81.2z
		 M151.1,86.1c-0.1-0.8,0.1-1.7,0.4-2.4c0.3-0.7,0.9-1.5,1.4-2.4l0.6-0.9l-1-0.6l-1.3-0.8l-0.3-0.2l-0.3-0.2
		c-0.2-0.1-0.3-0.2-0.4-0.4c-0.6-0.6-1-1.3-1.2-2c-0.5-1.5-0.1-3.2,1-4.3c1-1.2,2.7-1.7,4.1-1.3c0.7,0.2,1.4,0.5,2,1l2.3,2.1
		l1.8,1.6l0.8-2.3c0.3-1,0.7-2.1,1-3.1c0.2-0.7,0.7-1.4,1.4-2c1.2-1.1,3.2-1.4,4.8-0.8c1.6,0.6,2.9,2.3,3,4.2
		c0.1,0.9-0.1,1.9-0.5,2.7c-0.1,0.2-0.2,0.4-0.4,0.6l-0.5,0.7l-1,1.3l-0.4,0.6l0.6,0.3l2.1,1c0.1,0.1,0.3,0.2,0.5,0.2
		c0.1,0.1,0.3,0.2,0.4,0.3c0.3,0.2,0.6,0.4,0.8,0.7c1,1,1.6,2.5,1.5,3.9c0,1.5-0.6,2.9-1.7,3.9c-1.1,1-2.5,1.6-4,1.7
		c-1.2,0-2.3-0.4-3.3-1c-0.5-0.3-0.9-0.7-1.3-1.1l-1.3-1.2l-0.1-0.1l-0.1,0.2c-0.5,0.9-0.9,1.7-1.4,2.6c-0.5,0.8-1.2,1.5-2,1.9
		c-1.6,0.9-3.7,0.9-5.2,0.1C152.3,89.4,151.2,87.8,151.1,86.1z M157,93.2c-0.1,0-0.1,0-0.2,0C156.9,93.2,157,93.2,157,93.2z
		 M162.3,90.2c0,0,0,0.1-0.1,0.1C162.2,90.3,162.3,90.2,162.3,90.2z M161,91.5c0.1-0.1,0.1-0.1,0.2-0.2
		C161.2,91.4,161.1,91.4,161,91.5z"/>
	<path class="st2" d="M68.2,35.5c-1.8,0.8-3.3,2.4-4.1,4.2c-1.9-0.7-4.1-0.7-6,0.1c-2.2,0.9-3.9,2.8-4.5,5.1
		c-0.6,2.2-0.2,4.7,1.1,6.5c1.3,1.8,3.4,3,5.5,3.1c-1.2,1.6-1.6,3.9-1.1,6c0.5,2.1,2,4,4,5c1,0.5,2.1,0.8,3.2,0.8
		c0.6,0,1.1,0,1.7-0.1c0.5-0.1,1.1-0.3,1.6-0.5c1.9-0.8,3.4-2.3,4.2-4.2c1.9,0.4,3.8,0.2,5.5-0.7c1.9-1,3.4-2.8,3.9-4.8
		c0.6-2,0.3-4.3-0.8-6c-1.1-1.7-2.8-3-4.7-3.3c1.2-1.7,1.7-4,1.1-6.1c-0.6-2.1-2.1-4-4.1-5C72.8,34.5,70.3,34.6,68.2,35.5z
		 M77.4,58.1c-0.8,0.2-1.5,0.2-2.3,0.1c-0.7-0.2-1.6-0.6-2.4-0.9l-0.9-0.3l-0.4,1l-0.5,1.4l-0.1,0.3l-0.1,0.3
		c-0.1,0.2-0.2,0.3-0.3,0.5c-0.4,0.6-1,1.1-1.6,1.5c-1.3,0.7-2.9,0.6-4.1-0.1c-1.2-0.7-2-2.1-2-3.5c0-0.7,0.2-1.4,0.5-2l1.5-2.5
		l1.1-1.9l-2.2-0.3c-1-0.1-2-0.2-3-0.3c-0.7-0.1-1.4-0.4-2-0.9c-1.2-0.9-1.9-2.6-1.6-4.2c0.3-1.6,1.6-3.1,3.2-3.5
		c0.8-0.2,1.7-0.3,2.6,0c0.2,0.1,0.4,0.1,0.6,0.2l0.7,0.3l1.4,0.6l0.6,0.3l0.1-0.6l0.5-2c0-0.1,0.1-0.3,0.1-0.5
		c0.1-0.1,0.1-0.3,0.2-0.4c0.1-0.3,0.3-0.6,0.5-0.9c0.8-1.1,2-1.9,3.3-2.1c1.3-0.3,2.8,0,3.9,0.8c1.1,0.8,2,2,2.2,3.3
		c0.2,1.1,0.1,2.2-0.4,3.1c-0.2,0.5-0.5,0.9-0.8,1.4l-0.9,1.4l-0.1,0.2l0.2,0.1c0.9,0.3,1.7,0.5,2.6,0.8c0.8,0.3,1.5,0.8,2.1,1.4
		c1.1,1.3,1.5,3.2,1,4.7C80.2,56.4,78.9,57.7,77.4,58.1z M82.7,51.4c0,0.1,0,0.1,0.1,0.2C82.7,51.5,82.7,51.5,82.7,51.4z M79,47.2
		c0,0,0.1,0,0.1,0.1C79.1,47.2,79.1,47.2,79,47.2z M80.4,48.1c-0.1-0.1-0.1-0.1-0.2-0.2C80.3,48,80.4,48,80.4,48.1z"/>
	<path class="st2" d="M100.1,70.7l-0.1,0.1L100.1,70.7c-1-1.3-2.5-2.2-4-2.7c-1.6-0.5-3.3-0.5-4.9-0.3c-3.2,0.4-6.3,1.8-9,3.7
		c-2.6,1.9-4.9,4.5-5.8,7.7c-0.1,0.3-0.1,0.6-0.1,0.8c0,0.2,0,0.3-0.1,0.5c-0.1,0.6-0.1,1.1-0.1,1.7c0,0.2,0,0.4,0.1,0.6
		c0,0.1,0,0.2,0.1,0.3c0,0.2,0,0.3,0.1,0.5c0,0.1,0,0.3,0.1,0.4c0,0.2,0.1,0.3,0.2,0.5c0.2,0.5,0.4,1,0.6,1.5
		c0.1,0.3,0.3,0.5,0.5,0.8c0.2,0.3,0.4,0.6,0.7,1c0.1,0.2,0.3,0.4,0.4,0.6l0,0c0,0,0,0,0,0l0,0c1,1.1,2.4,1.9,3.9,2
		c1.5,0.2,3,0,4.4-0.3c2.9-0.8,5.5-2.2,7.9-4c2.3-1.8,4.4-4.1,5.7-6.8c0.6-1.3,1-2.8,1-4.3C101.6,73.4,101.1,71.9,100.1,70.7z
		 M82.9,75.5c-1.6-2.4,3.9-5.1,4.7-3C88.4,74.5,84,77.2,82.9,75.5z"/>
	<path class="st4" d="M143.2,210.1l0.1-0.1L143.2,210.1c1.2,0.8,2.7,1.3,4.1,1.2c1.5,0,2.9-0.4,4.2-1c2.6-1.2,4.9-3.1,6.6-5.4
		c1.7-2.3,3-5.1,2.9-8c0-0.2-0.1-0.5-0.1-0.7c0-0.1,0-0.3-0.1-0.4c-0.1-0.5-0.2-1-0.4-1.5c-0.1-0.2-0.1-0.3-0.2-0.5
		c0-0.1-0.1-0.2-0.1-0.3c-0.1-0.1-0.1-0.3-0.2-0.4c-0.1-0.1-0.1-0.2-0.2-0.3c-0.1-0.1-0.2-0.2-0.3-0.3c-0.3-0.4-0.6-0.7-0.9-1.1
		c-0.2-0.2-0.4-0.4-0.6-0.6c-0.2-0.2-0.5-0.4-0.8-0.6c-0.2-0.1-0.3-0.3-0.5-0.4l0,0c0,0,0,0,0,0l0,0c-1.1-0.7-2.5-0.9-3.8-0.7
		c-1.3,0.2-2.5,0.8-3.6,1.4c-2.2,1.4-4.1,3.3-5.6,5.4c-1.5,2.2-2.6,4.6-3,7.2c-0.2,1.3-0.2,2.6,0.3,3.9
		C141.3,208.3,142.1,209.4,143.2,210.1z M156.6,201.7c2,1.6-2,5.3-3.2,3.8C152.1,203.9,155.2,200.5,156.6,201.7z"/>
	<path class="st3" d="M211.2,71.2L211.2,71.2L211.2,71.2c0.3,0.1,0.6,0,0.8-0.2c0.2-0.2,0.2-0.5,0.2-0.8c0-0.5-0.2-1.1-0.3-1.6
		c-0.3-1-0.7-2-1.1-2.9c0.5,0.1,0.9,0.2,1.4,0.2c0.3,0,0.5,0,0.8,0c0.2,0,0.5-0.1,0.7-0.4c0.1-0.2,0-0.4,0-0.6c0,0,0-0.1,0-0.1
		c0,0,0,0,0-0.1c0,0,0,0,0,0c-0.1-0.2-0.2-0.3-0.3-0.5c0,0,0,0,0-0.1c0,0,0-0.1-0.1-0.1c0,0,0,0-0.1-0.1c-0.1-0.2-0.3-0.4-0.4-0.5
		c0.3,0.2,0.6,0.4,0.9,0.4c0.5,0,0.9-0.4,1.1-0.8c0.2-0.4,0.3-0.8,0.4-1.3c1.4,0.9,2.9,1.8,4.5,2.3c0.4,0.1,0.8,0.2,1.3,0.3
		c0.4,0,0.9,0,1.2-0.4c0.3-0.4,0.3-0.8,0.3-1.3c0-0.4-0.1-0.8-0.3-1.2c0.9,0.1,1.8,0.2,2.8,0.1c0.5-0.1,0.9-0.2,1.4-0.3
		c0.4-0.2,0.8-0.5,1.1-0.9l0,0l0,0c0.1-0.5-0.1-1.1-0.4-1.5c-0.1-0.1-0.2-0.3-0.3-0.4c0,0,0,0,0-0.1c-0.2-0.3-0.5-0.5-0.7-0.7
		c-0.1-0.1-0.1-0.1-0.2-0.2c-0.3-0.2-0.6-0.4-0.9-0.6c-0.2-0.1-0.3-0.2-0.5-0.3c-0.3-0.2-0.6-0.4-0.8-0.5c-0.1,0-0.2-0.1-0.2-0.1
		c0.1-0.3,0.2-0.6,0.2-0.9c0-0.3-0.2-0.7-0.4-0.9c-0.5-0.5-1.1-0.6-1.8-0.7c-0.1,0-0.2,0-0.3,0c-0.4-0.1-0.8-0.1-1.2-0.1
		c-0.4,0-0.7,0-1.1,0c-0.3,0-0.5,0-0.7,0c-0.1,0-0.2,0-0.4,0c0.1-0.2,0.3-0.3,0.4-0.5c0.1-0.3,0.2-0.6,0-0.8
		c-0.1-0.3-0.4-0.4-0.7-0.5c-0.1,0-0.2,0-0.2,0c-0.1,0-0.2,0-0.2,0c-0.1,0-0.2,0-0.4,0c-0.7,0-1.3,0.2-1.9,0.5c0.3-0.3,0.7-0.6,1-1
		c0.3-0.4,0.6-0.9,0.7-1.5c0-0.6-0.5-1-1-1.2c0,0-0.1,0-0.1,0c-0.2-0.1-0.3-0.1-0.5-0.2c-0.1,0-0.2-0.1-0.3-0.1
		c-0.2,0-0.4-0.1-0.5-0.1c0.5-0.5,1-1.1,1.4-1.8c0.2-0.3,0.4-0.7,0.5-1.1c0-0.2,0-0.4,0-0.6c0-0.1-0.1-0.2-0.2-0.3
		c-0.1-0.1-0.2-0.1-0.3-0.2c-1.5-0.7-3.4,0.7-3.8,1c0.1-0.3,0.2-0.6,0.2-0.9c0-0.1,0-0.3-0.1-0.4c0,0,0,0,0,0c0-0.1-0.1-0.1-0.1-0.2
		c0,0-0.1-0.1-0.1-0.1c0,0-0.1,0-0.1,0c-0.2-0.1-0.4-0.2-0.8-0.1c-0.7,0-1.4,0.8-2,1.6c0,0.1-0.1,0.1-0.1,0.2
		c-0.1,0.2-0.2,0.4-0.3,0.6c0,0.1-0.1,0.2-0.1,0.2c0,0.1,0,0.1-0.1,0.2c-0.3,0.7-0.6,1.3-0.7,1.6c0,0.1-0.1,0.1-0.1,0.2c0,0,0,0,0,0
		c-0.2-0.2-0.5-0.2-0.8-0.1l0,0c-0.1,0-0.1,0.1-0.2,0.2c0,0,0,0,0,0c0,0,0,0,0,0c-0.1,0.1-0.2,0.2-0.3,0.4c-0.1,0.2-0.2,0.4-0.3,0.6
		c0,0.1,0,0.1,0,0.2c-0.1,0.2-0.1,0.5-0.2,0.7c0,0.3-0.1,0.5-0.1,0.8c0,0,0,0.1,0,0.1c0,0.2,0,0.4,0,0.6c0,1.5,0.5,2.9,1.2,4.1
		c-0.1,0.3-0.1,0.7-0.1,1.1c-0.4,0-0.8,0-1.2-0.1c-1.9-0.1-4.8-0.3-6.8-0.2l0,0c0,0,0,0,0,0l0,0l0,0l0.6,0.9l0.7,0.9l0,0l0,0
		c1.8-0.2,3.7-0.4,5.6-0.4c0.4,0,0.7,0,1.1,0c-0.1,0.3-0.1,0.7,0,1c-0.8,0.7-1.4,1.6-1.7,2.5c0,0.1-0.1,0.2-0.1,0.3
		c-0.1,0.2-0.2,0.5-0.2,0.7c0,0.1-0.1,0.2-0.1,0.3c0,0.2-0.1,0.3-0.1,0.5c0,0.1,0,0.2-0.1,0.3c-0.1,0.4-0.1,0.7-0.1,1.1
		c0,0,0,0.1,0,0.1c0,0.1,0,0.3,0,0.4c0.1,0.4,0.1,0.8,0.5,1.1c0.2,0.2,0.4,0.2,0.6,0.1c0.2-0.1,0.3-0.2,0.4-0.3c0,0.6,0,1.2,0.1,1.8
		c0.1,0.6,0.2,1.2,0.5,1.8c0.2,0.3,0.4,0.5,0.7,0.5c0.3,0.1,0.7-0.1,0.8-0.4c0.3-0.5,0.5-1.1,0.5-1.7c0.4,0.8,0.8,1.5,1.4,2.1
		C209.6,70.5,210.3,71.1,211.2,71.2z M211.2,71.2c-0.2-0.1-0.4-0.1-0.6-0.2C210.8,71,211,71.1,211.2,71.2
		C211.2,71.1,211.3,71.1,211.2,71.2C211.3,71.1,211.2,71.2,211.2,71.2L211.2,71.2z M209.7,55.2C209.7,55.2,209.7,55.3,209.7,55.2
		C209.6,55.3,209.6,55.3,209.7,55.2L209.7,55.2z M199.7,58c-0.2,0-0.4,0.1-0.6,0.1c0,0,0,0,0,0C199.3,58,199.5,58,199.7,58z
		 M227.1,60.4C227.1,60.4,227.1,60.4,227.1,60.4L227.1,60.4C227.1,60.4,227.1,60.4,227.1,60.4z M206.6,55.9c1-0.2,2-0.3,3-0.5
		c0,0,0,0-0.1,0.1c-0.2,0.2-0.4,0.5-0.6,0.7c-0.2,0.2-0.3,0.3-0.5,0.5v0c-0.7-0.1-1.3-0.1-2-0.1l0.1,0
		C206.6,56.3,206.6,56.1,206.6,55.9z M206.3,57.7c0.7,0,1.4,0,2.1,0c0.5,0.9,0.9,1.7,1.5,2.6l-0.9-0.4c0,0,0,0,0,0l-2.5-1.3
		c0-0.3,0-0.6,0.1-0.8L206.3,57.7z"/>
	<path class="st3" d="M94.9,38.4L94.9,38.4L94.9,38.4c-0.1,0.2-0.1,0.5,0.1,0.7c0.2,0.2,0.4,0.2,0.7,0.2c0.5,0,1,0,1.4-0.1
		c0.9-0.2,1.8-0.4,2.7-0.7c-0.1,0.4-0.3,0.8-0.4,1.2c0,0.2-0.1,0.5-0.1,0.7c0,0.2,0.1,0.5,0.3,0.6c0.2,0.1,0.3,0.1,0.5,0
		c0,0,0.1,0,0.1,0c0,0,0,0,0.1,0c0,0,0,0,0,0c0.2-0.1,0.3-0.1,0.4-0.2c0,0,0,0,0.1,0c0,0,0.1,0,0.1,0c0,0,0,0,0.1,0
		c0.2-0.1,0.3-0.2,0.5-0.3c-0.2,0.2-0.4,0.5-0.4,0.8c-0.1,0.5,0.3,0.8,0.6,1c0.3,0.2,0.7,0.4,1.1,0.5c-1,1.2-1.9,2.4-2.6,3.7
		c-0.2,0.4-0.3,0.7-0.4,1.1c-0.1,0.4-0.1,0.8,0.2,1.1c0.3,0.3,0.7,0.4,1.1,0.4c0.4,0,0.7,0,1.1-0.1c-0.2,0.8-0.3,1.6-0.3,2.5
		c0,0.4,0,0.9,0.2,1.3c0.1,0.4,0.3,0.8,0.7,1l0,0l0,0c0.5,0.2,1,0,1.4-0.2c0.1-0.1,0.3-0.2,0.4-0.2c0,0,0,0,0.1,0
		c0.3-0.2,0.5-0.4,0.7-0.6c0.1-0.1,0.1-0.1,0.2-0.2c0.2-0.2,0.5-0.5,0.7-0.7c0.1-0.1,0.2-0.3,0.4-0.4c0.2-0.3,0.4-0.5,0.5-0.7
		c0-0.1,0.1-0.1,0.2-0.2c0.2,0.1,0.5,0.2,0.8,0.2c0.3,0,0.6-0.1,0.8-0.3c0.5-0.4,0.7-1,0.8-1.5c0-0.1,0-0.2,0.1-0.3
		c0.1-0.3,0.2-0.7,0.2-1c0-0.3,0.1-0.7,0.1-1c0-0.2,0-0.5,0-0.6c0-0.1,0-0.2,0-0.3c0.1,0.1,0.3,0.3,0.5,0.4c0.2,0.1,0.5,0.2,0.7,0.1
		c0.3-0.1,0.4-0.3,0.5-0.5c0-0.1,0-0.1,0-0.2c0-0.1,0-0.1,0-0.2c0-0.1,0.1-0.2,0.1-0.3c0-0.6-0.1-1.2-0.2-1.7c0.2,0.3,0.5,0.7,0.8,1
		c0.3,0.3,0.7,0.7,1.2,0.7c0.5,0.1,1-0.3,1.2-0.7c0,0,0-0.1,0.1-0.1c0.1-0.1,0.1-0.3,0.2-0.4c0-0.1,0.1-0.2,0.1-0.3
		c0.1-0.2,0.1-0.3,0.1-0.4c0.4,0.5,0.9,1,1.4,1.5c0.3,0.2,0.6,0.4,0.9,0.5c0.2,0.1,0.4,0.1,0.5,0c0.1,0,0.2-0.1,0.2-0.1
		c0.1-0.1,0.1-0.1,0.2-0.2c0.8-1.2-0.3-3.1-0.5-3.5c0.3,0.1,0.5,0.2,0.8,0.2c0.1,0,0.2,0,0.4-0.1c0,0,0,0,0,0c0.1,0,0.1-0.1,0.2-0.1
		c0,0,0.1-0.1,0.1-0.1c0,0,0-0.1,0.1-0.1c0.1-0.1,0.2-0.3,0.2-0.7c0-0.7-0.5-1.3-1.3-1.9c-0.1,0-0.1-0.1-0.2-0.1
		c-0.2-0.1-0.3-0.2-0.5-0.4c-0.1,0-0.1-0.1-0.2-0.1c0,0-0.1,0-0.1-0.1c-0.6-0.4-1.1-0.7-1.4-0.8c0,0-0.1-0.1-0.1-0.1c0,0,0,0,0,0
		c0.2-0.2,0.3-0.4,0.1-0.7l0,0c0-0.1-0.1-0.1-0.1-0.2c0,0,0,0,0,0c0,0,0,0,0,0c-0.1-0.1-0.2-0.2-0.3-0.3c-0.2-0.1-0.3-0.3-0.5-0.4
		c-0.1,0-0.1,0-0.2-0.1c-0.2-0.1-0.4-0.2-0.6-0.2c-0.2-0.1-0.5-0.1-0.7-0.2c0,0-0.1,0-0.1,0c-0.2,0-0.3-0.1-0.5-0.1
		c-1.3-0.1-2.6,0.1-3.8,0.6c-0.3-0.1-0.6-0.2-0.9-0.2c0.1-0.3,0.1-0.7,0.2-1c0.3-1.7,0.8-4.3,0.8-6l0,0c0,0,0,0,0,0h0l0,0l-0.9,0.4
		l-0.8,0.5l0,0h0c0,1.7-0.1,3.4-0.2,5c0,0.3-0.1,0.7-0.1,1c-0.3-0.1-0.6-0.1-0.9-0.1c-0.6-0.8-1.3-1.4-2.1-1.8
		c-0.1,0-0.2-0.1-0.2-0.1c-0.2-0.1-0.4-0.2-0.6-0.3c-0.1,0-0.2-0.1-0.3-0.1c-0.1-0.1-0.3-0.1-0.4-0.1c-0.1,0-0.2-0.1-0.3-0.1
		c-0.3-0.1-0.7-0.1-1-0.2c0,0-0.1,0-0.1,0c-0.1,0-0.2,0-0.3,0c-0.4,0-0.8,0-1.1,0.3c-0.2,0.1-0.2,0.3-0.2,0.5c0,0.2,0.1,0.3,0.2,0.4
		c-0.5-0.1-1.1-0.1-1.6-0.1c-0.6,0-1.1,0-1.7,0.3c-0.3,0.1-0.5,0.3-0.6,0.6c-0.1,0.3,0,0.6,0.3,0.8c0.4,0.4,0.9,0.5,1.5,0.7
		c-0.7,0.3-1.4,0.6-2,1.1C95.7,37,95.1,37.6,94.9,38.4z M94.9,38.4c0.1-0.2,0.2-0.4,0.3-0.6C95.1,38,95,38.2,94.9,38.4
		C95,38.4,95,38.5,94.9,38.4C95,38.5,95,38.4,94.9,38.4L94.9,38.4z M109.4,38.7C109.3,38.7,109.3,38.7,109.4,38.7
		C109.3,38.7,109.3,38.7,109.4,38.7L109.4,38.7z M107.9,29.5c0-0.2,0-0.3,0-0.5c0,0,0,0,0,0C107.9,29.2,107.9,29.4,107.9,29.5z
		 M102.9,53.7C102.9,53.7,102.9,53.7,102.9,53.7L102.9,53.7C102.9,53.7,102.9,53.7,102.9,53.7z M109.1,35.9c0,0.9,0.1,1.8,0.2,2.7
		c0,0,0,0-0.1-0.1c-0.2-0.2-0.4-0.4-0.6-0.6c-0.2-0.2-0.3-0.3-0.4-0.5l0,0c0.1-0.6,0.2-1.2,0.3-1.8l0,0.1
		C108.7,35.8,108.9,35.9,109.1,35.9z M107.5,35.5c-0.1,0.6-0.1,1.2-0.2,1.8c-0.8,0.3-1.6,0.7-2.4,1l0.5-0.7l0,0l1.4-2.1
		c0.3,0,0.5,0.1,0.7,0.2L107.5,35.5z"/>
	<g>
		<path class="st5" d="M55.8,73.8c-1.4-1.4-3.3-2.2-5.2-2.2c-2,0-3.9,0.8-5.3,2.2C43.8,75.1,43,77.1,43,79c0,2,0.8,3.9,2.2,5.3
			c1.4,1.4,3.3,2.2,5.3,2.2c2,0,3.9-0.8,5.2-2.2c1.4-1.4,2.2-3.3,2.1-5.2C57.9,77.1,57.1,75.2,55.8,73.8z M46.3,75.8
			c0.8,0.2,0.1,4.1-1.6,3.1C43,77.9,44.2,75.3,46.3,75.8z M52.1,72.8c0.4,0.5,0.8,1,1.1,1.6c0.3,0.6,0.4,1.3,0.4,2
			c0,0.7,0,1.3-0.3,2.1L53.1,79l-0.6,0.2c-0.6,0.2-1.3,0.1-1.8-0.2c-0.5-0.3-0.8-0.6-1.1-0.9c-0.5-0.6-0.8-1.3-1.2-1.9
			c-0.3-0.6-0.6-1.2-0.9-1.7c-0.3-0.5-0.7-1-1.4-1.2c0.7-0.1,1.3,0.3,1.8,0.8c0.5,0.5,0.9,1,1.2,1.6c0.4,0.6,0.8,1.1,1.2,1.7
			c0.2,0.3,0.5,0.5,0.8,0.7c0.3,0.2,0.7,0.2,1.1,0.1l0.1,0l0-0.1c0.4-1.1,0.4-2.4,0.1-3.5c-0.3-1.1-1-2.1-1.9-2.9
			C51.1,72,51.6,72.4,52.1,72.8z M49.7,74.9c-0.2,0.3-2.4-1.8-1.6-2.1C48.9,72.5,50.3,74.2,49.7,74.9z"/>
	</g>
	<g>
		<path class="st5" d="M142.9,38.1c1.1-1,1.7-2.4,1.8-3.8c0.1-1.5-0.5-2.9-1.5-4c-1-1.1-2.4-1.7-3.9-1.8c-1.5,0-2.9,0.5-4,1.5
			c-1.1,1-1.7,2.4-1.7,3.9c0,1.5,0.5,2.9,1.5,3.9c1,1.1,2.4,1.7,3.8,1.7C140.4,39.6,141.9,39.1,142.9,38.1z M141.7,31
			c-0.2,0.6-3,0-2.3-1.3C140.2,28.5,142.1,29.5,141.7,31z M143.8,35.4c-0.4,0.3-0.8,0.6-1.2,0.8c-0.5,0.2-1,0.3-1.5,0.3
			c-0.5,0-1-0.1-1.5-0.3l-0.3-0.1l-0.1-0.4c-0.1-0.4,0-1,0.2-1.3c0.2-0.3,0.5-0.6,0.7-0.8c0.5-0.4,1-0.6,1.4-0.8
			c0.5-0.2,0.9-0.4,1.3-0.7c0.4-0.2,0.7-0.5,0.9-1c0,0.5-0.3,1-0.6,1.3c-0.4,0.3-0.8,0.6-1.2,0.9c-0.4,0.3-0.9,0.5-1.3,0.9
			c-0.2,0.2-0.4,0.4-0.5,0.6c-0.1,0.2-0.2,0.5-0.1,0.8l0,0l0,0c0.8,0.3,1.7,0.4,2.6,0.1c0.8-0.2,1.6-0.7,2.2-1.3
			C144.4,34.7,144.1,35,143.8,35.4z M142.3,33.5c-0.2-0.2,1.4-1.7,1.6-1.1C144.1,33,142.8,34,142.3,33.5z"/>
	</g>
	<g>
		<path class="st1" d="M131.9,240.3c0.2-0.6,0.3-1.3,0.6-1.9c0.2-0.6,0.5-1.2,0.9-1.8c0.7-1.1,1.7-2.1,2.6-3.1
			c0.4-0.5,0.9-1,1.2-1.7c0.3-0.6,0.1-1.4-0.3-2l-0.1,0l0.1,0c-0.5-0.7-1.5-1-2.3-1.2c-0.9-0.2-1.7-0.2-2.6-0.2
			c-1.8,0-3.5,0.3-5.2,0.7c-1.7,0.4-3.4,0.9-5,1.7c-0.7,0.4-1.5,0.8-2,1.4c0,0-0.1,0-0.1,0.1c0,0,0,0,0,0c-0.2,0.2-0.3,0.4-0.4,0.6
			c0,0,0,0,0,0c-0.2,0.4-0.4,0.7-0.5,1.1c0,0,0,0,0,0.1c-0.1,0.5-0.1,1.1-0.1,1.6c0,0,0,0,0,0.1c0,0.3,0.1,0.5,0.2,0.8
			c0.2,0.7,0.5,1.4,0.8,2.1c0.7,1.2,1.5,2.3,2.4,3.3c0.9,1,2.1,1.8,3.5,2.1c1.3,0.3,2.8,0.1,4-0.6
			C130.6,242.7,131.5,241.6,131.9,240.3z M121.6,234c-0.4-2.5,5.2-4.1,6-2C128.8,235.1,122,236.5,121.6,234z M135.3,231.1
			c-0.6,0.1-1.2,0.2-1.9,0.1c-0.2,0-0.3-0.1-0.4-0.3c-0.1-0.2,0-0.4,0.1-0.5c0.2-0.3,0.5-0.5,0.7-0.6c0.3-0.2,0.6-0.3,1-0.5
			c0.2,0,0.4,0,0.6,0.1c-0.3,0.4-0.6,0.7-0.9,0.9c0.2,0,0.5,0,0.7,0c0.5,0,1.1,0.1,1.8,0.2c0,0.1,0,0.1,0,0.2
			C136.4,230.8,135.9,230.9,135.3,231.1z"/>
	</g>
	<g>
		<path class="st1" d="M119.9,64.8c0.2,0.6,0.6,1.1,0.8,1.6c0.2,0.6,0.4,1.1,0.5,1.7c0.2,1.2,0.1,2.4,0.1,3.6c0,0.6,0,1.2,0.2,1.8
			c0.2,0.6,0.8,1,1.4,1.2l0-0.1l0,0.1c0.8,0.2,1.6-0.2,2.2-0.6c0.7-0.4,1.3-0.9,1.8-1.4c1.1-1.1,2.1-2.3,3-3.6
			c0.9-1.3,1.7-2.6,2.3-4.1c0.3-0.7,0.5-1.4,0.5-2.1c0,0,0-0.1,0-0.1c0,0,0,0,0,0c0-0.2,0-0.4,0-0.6c0,0,0,0,0,0
			c-0.1-0.4-0.2-0.7-0.3-1c0,0,0,0,0,0c-0.2-0.4-0.5-0.8-0.9-1.1c0,0,0,0,0,0c-0.2-0.1-0.4-0.3-0.6-0.4c-0.6-0.4-1.2-0.6-1.8-0.9
			c-1.1-0.4-2.3-0.6-3.5-0.8c-1.2-0.1-2.5,0.1-3.5,0.7c-1.1,0.6-1.9,1.6-2.3,2.7C119.4,62.4,119.5,63.7,119.9,64.8z M130.5,62.8
			c1.7,1.4-1,5.8-2.8,4.9C125.1,66.4,128.8,61.4,130.5,62.8z M123.1,73c0.3-0.4,0.7-0.9,1.2-1.2c0.1-0.1,0.3-0.1,0.5-0.1
			c0.2,0.1,0.2,0.3,0.3,0.4c0,0.3,0,0.6-0.1,0.9c-0.1,0.3-0.2,0.6-0.3,0.9c-0.1,0.1-0.3,0.2-0.4,0.3c0-0.4,0-0.8,0-1.1
			c-0.2,0.1-0.3,0.3-0.5,0.4c-0.4,0.3-0.8,0.6-1.3,0.9c0,0-0.1-0.1-0.1-0.1C122.6,73.8,122.8,73.4,123.1,73z"/>
	</g>
	<g>
		<path class="st1" d="M32.7,46.2c-0.5-0.1-1,0-1.5,0c-0.5,0-1-0.2-1.5-0.3c-1-0.3-1.8-0.8-2.8-1.3c-0.5-0.2-0.9-0.5-1.4-0.5
			c-0.5-0.1-1.1,0.2-1.4,0.6l0,0l0,0c-0.4,0.5-0.5,1.3-0.4,1.9c0,0.7,0.2,1.3,0.4,1.9c0.4,1.3,0.9,2.5,1.5,3.7
			c0.6,1.2,1.3,2.3,2.2,3.3c0.4,0.5,0.9,0.9,1.4,1.2c0,0,0,0,0.1,0c0,0,0,0,0,0c0.2,0.1,0.3,0.2,0.5,0.2c0,0,0,0,0,0
			c0.3,0.1,0.6,0.1,0.9,0.1c0,0,0,0,0,0c0.4,0,0.8-0.1,1.2-0.3c0,0,0,0,0,0c0.2-0.1,0.4-0.2,0.5-0.3c0.5-0.3,0.9-0.6,1.3-1
			c0.7-0.7,1.4-1.5,2-2.3c0.6-0.9,0.9-1.9,0.9-2.9c0-1-0.4-2.1-1.2-2.8C34.8,46.7,33.8,46.3,32.7,46.2z M30.1,54.9
			c-1.7,0.7-4-3-2.6-4C29.5,49.5,31.8,54.2,30.1,54.9z M25.4,45.4c0.2,0.4,0.4,0.9,0.4,1.4c0,0.1,0,0.3-0.1,0.4
			c-0.1,0.1-0.3,0.1-0.4,0c-0.2-0.1-0.4-0.2-0.6-0.4c-0.2-0.2-0.4-0.4-0.5-0.6c0-0.1,0-0.3-0.1-0.4c0.3,0.2,0.6,0.3,0.8,0.4
			c0-0.2-0.1-0.3-0.1-0.5c-0.1-0.4-0.2-0.8-0.2-1.3c0,0,0.1,0,0.1-0.1C25,44.7,25.2,45,25.4,45.4z"/>
	</g>
	<g>
		<path class="st1" d="M199.3,91.4c0.7-0.1,1.3-0.3,2-0.4c0.7-0.1,1.3-0.1,2,0c1.3,0.1,2.6,0.6,3.9,0.9c0.7,0.2,1.3,0.3,2,0.3
			c0.7,0,1.3-0.5,1.6-1.1l-0.1,0l0.1,0c0.4-0.8,0.3-1.8,0-2.6c-0.2-0.8-0.6-1.6-1-2.4c-0.8-1.5-1.8-3-2.9-4.3
			c-1.1-1.3-2.3-2.6-3.7-3.7c-0.7-0.5-1.4-1-2.2-1.2c0,0-0.1,0-0.1,0c0,0,0,0,0,0c-0.2-0.1-0.5-0.1-0.7-0.1c0,0,0,0,0,0
			c-0.4-0.1-0.8,0-1.2,0.1c0,0,0,0-0.1,0c-0.5,0.1-1,0.3-1.5,0.7c0,0,0,0-0.1,0c-0.2,0.1-0.4,0.3-0.6,0.5c-0.6,0.5-1,1.1-1.5,1.7
			c-0.8,1.1-1.4,2.3-1.9,3.6c-0.5,1.3-0.6,2.7-0.3,4c0.3,1.3,1.1,2.6,2.3,3.3C196.5,91.3,197.9,91.6,199.3,91.4z M200.3,79.4
			c2-1.4,6,2.8,4.4,4.5C202.5,86.3,198.2,80.8,200.3,79.4z M209,90.4c-0.4-0.5-0.8-1-0.9-1.7c0-0.2,0-0.4,0.1-0.5
			c0.1-0.2,0.4-0.2,0.5-0.2c0.3,0,0.6,0.2,0.9,0.4c0.3,0.2,0.6,0.4,0.9,0.6c0.1,0.2,0.1,0.4,0.2,0.5c-0.5-0.1-0.9-0.2-1.2-0.3
			c0.1,0.2,0.2,0.4,0.3,0.7c0.2,0.5,0.4,1,0.6,1.7c0,0-0.1,0.1-0.2,0.1C209.8,91.2,209.4,90.8,209,90.4z"/>
	</g>
</g>
<g>
	<g>
		<path class="st2" d="M41.9,107.3l11,20.6C51.8,117.3,47.2,110.9,41.9,107.3z"/>
		<path class="st1" d="M52.9,127.9l-11-20.6c-4.3-2.9-8.9-3.9-12.4-3.9c-5.1,0-11.9,1.4-18.4,1.4c-3.5,0-7.1-0.4-10.2-1.4
			c3.4,6.9,5.3,20.7,5.3,35.3c0,13.4-1.5,27.6-4.8,37.7c0,0,4-1.9,15.6-1.9c4.3,0,9.7,0.3,16.4,1c-6.8-10.4-8-22.8-8-22.8
			c2.6,1.4,5.3,2,8.1,2c10,0,19.5-8.7,19.5-22.6C53,130.7,53,129.3,52.9,127.9z M25,140.2c-0.1-1.2-0.1-2.3-0.1-3.4
			c0-3.6-0.2-16.1,5.3-16.1c2,0,4,1.9,4,4.8C34.2,130.6,28.3,137.1,25,140.2z"/>
		<path class="st2" d="M79.7,134.1c0-11.8,1-22.6,2.5-30c0,0-3.5,0.6-9.5,0.6c-4.4,0-10.1-0.3-16.6-1.5c3.3,6.7,3.5,34.4,3.5,35.3
			c0,0.4,0,1.1,0,2.1l18,33.9c4.3,0.1,6.8,0.4,6.8,0.4C81,162.7,79.7,147.8,79.7,134.1z"/>
		<path class="st1" d="M77.6,174.5c-0.6,0-1.2,0-1.9,0c-5.3,0-12.5,0.4-20.7,1.7c3.9-7.9,4.5-28.4,4.6-35.6L77.6,174.5z"/>
		<path class="st2" d="M114.9,160.2c8.3-1.7,16.3-4.1,23.3-10.4c-0.4,3.4-0.6,6.9-0.6,10.2c0,5.4,0.5,10.9,1.7,16.2
			c-8.2-1.2-17.2-1.8-26.1-1.8c-9.1,0-18.4,0.6-26.8,1.8c8.3-20.3,17.4-38.5,27.4-55.3c-8.2,0.4-16.9,3.1-24.8,7.6
			c0.5-3.6,0.8-7.2,0.8-10.6c0-4.7-0.5-9.4-1.8-13.9c7.1,0.8,14.7,1.2,22.5,1.2c9.9,0,19.9-0.7,29-1.9
			C136.3,114.9,120.7,140.6,114.9,160.2z"/>
		<path class="st2" d="M193.7,103.3c-9.1,1.2-19.1,1.9-29,1.9c-7.8,0-15.4-0.4-22.5-1.2c1.3,4.5,1.8,9.2,1.8,13.9
			c0,3.4-0.3,7-0.8,10.6c8-4.4,16.6-7.2,24.8-7.6c-10.1,16.7-19.2,35-27.4,55.3c8.5-1.2,17.8-1.8,26.8-1.8c3.5,0,7.1,0.1,10.6,0.3
			l12.3-23.1c-6.5,5-13.7,7.1-21.2,8.6C175,140.6,190.6,114.9,193.7,103.3z"/>
		<path class="st1" d="M193.6,176.2c-4.9-0.7-10.2-1.2-15.5-1.5l12.3-23.1v0c0.7-0.5,1.4-1.1,2.1-1.8c-0.4,3.4-0.6,6.9-0.6,10.2
			C191.9,165.4,192.4,170.9,193.6,176.2z"/>
		<path class="st2" d="M207.5,104.3c-0.3,6.1-0.8,12-1.4,17.8l9.1-17.1C212.4,104.8,209.8,104.6,207.5,104.3z"/>
		<path class="st1" d="M238.7,104.2c-4.1,0.8-9.2,1-14.3,1c-3.2,0-6.3-0.1-9.3-0.3l-9.1,17.1c-2,18.4-5.8,35.7-12,53.6
			c4.6-0.5,9-0.8,13.3-0.8c4.3,0,8.7,0.3,13.2,0.8c-0.4-2.4-2.1-4.5-2.1-10.5c0-5.9,1.3-11,5.3-11c3.5,0,5.5,5.7,5.5,11.9
			c0,6.2-1.2,7.4-2,10.5c5.5-1,10.8-1.5,16-1.5c3.8,0,7.6,0.2,11.6,0.7C246.6,152.8,239.8,129.2,238.7,104.2z M223.5,142.7
			c-1.9,0-3.7-1.9-3.7-5.1c0-3.2,1.9-6.8,2.9-13.6c4.5,10.8,4.5,13.6,4.5,13.6C227.1,140.5,225.5,142.7,223.5,142.7z"/>
	</g>
</g>
</svg>
